<svg width="156" height="166" viewBox="0 0 156 166" fill="none" xmlns="http://www.w3.org/2000/svg">
<mask id="path-1-outside-1_8_1058" maskUnits="userSpaceOnUse" x="-15.7473" y="-4.80343" width="181.054" height="176.623" fill="black">
<rect fill="white" x="-15.7473" y="-4.80343" width="181.054" height="176.623"/>
<path fill-rule="evenodd" clip-rule="evenodd" d="M26.1684 62.1889L20.5394 44.8645L29.9287 29.5425L35.7449 28.6213C36.232 28.5441 36.6582 28.8053 36.8106 29.2743L46.4609 58.9749L55.3896 57.5608C55.8767 57.4836 56.3029 57.7448 56.4553 58.2138L61.7884 74.6273C61.9407 75.0963 61.7176 75.4603 61.2306 75.5375L52.3019 76.9516L69.8249 130.882L116.929 123.421L88.2318 35.1009L78.4914 36.6436L94.4023 85.6121L79.9009 109.276L51.5462 22.0095C51.3939 21.5405 51.617 21.1765 52.104 21.0993L87.0071 15.5712C99.9943 13.5143 106.289 22.3792 111.368 38.0111L135.747 113.044C140.827 128.676 140.627 138.57 127.64 140.627L66.4125 150.324C60.4059 151.275 53.7988 147.227 51.9195 141.443L32.0094 80.1657L23.0807 81.5798C22.5937 81.657 22.1674 81.3957 22.015 80.9268L16.682 64.5133C16.5296 64.0443 16.7527 63.6803 17.2397 63.6031L26.1684 62.1889Z"/>
</mask>
<path fill-rule="evenodd" clip-rule="evenodd" d="M26.1684 62.1889L20.5394 44.8645L29.9287 29.5425L35.7449 28.6213C36.232 28.5441 36.6582 28.8053 36.8106 29.2743L46.4609 58.9749L55.3896 57.5608C55.8767 57.4836 56.3029 57.7448 56.4553 58.2138L61.7884 74.6273C61.9407 75.0963 61.7176 75.4603 61.2306 75.5375L52.3019 76.9516L69.8249 130.882L116.929 123.421L88.2318 35.1009L78.4914 36.6436L94.4023 85.6121L79.9009 109.276L51.5462 22.0095C51.3939 21.5405 51.617 21.1765 52.104 21.0993L87.0071 15.5712C99.9943 13.5143 106.289 22.3792 111.368 38.0111L135.747 113.044C140.827 128.676 140.627 138.57 127.64 140.627L66.4125 150.324C60.4059 151.275 53.7988 147.227 51.9195 141.443L32.0094 80.1657L23.0807 81.5798C22.5937 81.657 22.1674 81.3957 22.015 80.9268L16.682 64.5133C16.5296 64.0443 16.7527 63.6803 17.2397 63.6031L26.1684 62.1889Z" fill="white"/>
<path d="M20.5394 44.8645L5.86882 35.8744C3.83241 39.1975 3.42505 43.3317 4.73635 47.3675L20.5394 44.8645ZM26.1684 62.1889L31.1127 77.4059C35.3039 76.742 38.8026 74.5022 40.839 71.1791C42.8754 67.856 43.2827 63.7218 41.9714 59.686L26.1684 62.1889ZM29.9287 29.5425L24.9845 14.3256C20.7932 14.9894 17.2946 17.2292 15.2582 20.5523L29.9287 29.5425ZM35.7449 28.6213L40.6892 43.8382L35.7449 28.6213ZM46.4609 58.9749L30.6579 61.4779C33.3886 69.8819 42.6774 75.5742 51.4052 74.1918L46.4609 58.9749ZM61.2306 75.5375L66.1749 90.7544L61.2306 75.5375ZM52.3019 76.9516L47.3576 61.7347C43.1664 62.3986 39.6678 64.6384 37.6314 67.9615C35.595 71.2846 35.1876 75.4188 36.4989 79.4546L52.3019 76.9516ZM69.8249 130.882L54.0219 133.385C55.3332 137.42 58.2557 141.027 62.1466 143.412C66.0374 145.796 70.5779 146.762 74.7691 146.099L69.8249 130.882ZM116.929 123.421L121.873 138.638C130.601 137.256 135.463 129.322 132.732 120.918L116.929 123.421ZM88.2318 35.1009L104.035 32.5979C101.304 24.1939 92.0153 18.5016 83.2876 19.884L88.2318 35.1009ZM78.4914 36.6436L73.5472 21.4267C69.3559 22.0905 65.8573 24.3304 63.8209 27.6535C61.7845 30.9766 61.3771 35.1108 62.6884 39.1466L78.4914 36.6436ZM94.4023 85.6121L109.073 94.6022C111.109 91.2791 111.517 87.1449 110.205 83.1091L94.4023 85.6121ZM79.9009 109.276L64.0979 111.779C66.0977 117.934 71.7508 122.873 78.4213 124.293C85.0917 125.713 91.4659 123.334 94.5715 118.266L79.9009 109.276ZM51.9195 141.443L67.7226 138.94L51.9195 141.443ZM32.0094 80.1657L47.8124 77.6627C45.0818 69.2586 35.7929 63.5664 27.0651 64.9488L32.0094 80.1657ZM23.0807 81.5798L18.1364 66.3629L23.0807 81.5798ZM4.73635 47.3675L10.3654 64.6919L41.9714 59.686L36.3424 42.3616L4.73635 47.3675ZM15.2582 20.5523L5.86882 35.8744L35.2099 53.8546L44.5993 38.5326L15.2582 20.5523ZM30.8007 13.4044L24.9845 14.3256L34.873 44.7594L40.6892 43.8382L30.8007 13.4044ZM52.6136 26.7713C51.4138 23.0788 48.6826 19.0327 44.0816 16.2132C39.4805 13.3937 34.6355 12.797 30.8007 13.4044L40.6892 43.8382C37.3415 44.3684 32.953 43.8638 28.725 41.2728C24.4969 38.6819 22.055 35.0008 21.0076 31.7772L52.6136 26.7713ZM62.2639 56.472L52.6136 26.7713L21.0076 31.7772L30.6579 61.4779L62.2639 56.472ZM50.4454 42.3439L41.5167 43.758L51.4052 74.1918L60.3339 72.7777L50.4454 42.3439ZM72.2583 55.7108C71.0585 52.0183 68.3272 47.9721 63.7262 45.1526C59.1252 42.3332 54.2801 41.7365 50.4454 42.3439L60.3339 72.7777C56.9861 73.3079 52.5977 72.8033 48.3697 70.2123C44.1417 67.6214 41.6997 63.9404 40.6523 60.7167L72.2583 55.7108ZM77.5914 72.1244L72.2583 55.7108L40.6523 60.7167L45.9854 77.1303L77.5914 72.1244ZM66.1749 90.7544C70.0097 90.147 74.0117 88.1491 76.4198 84.2194C78.8279 80.2897 78.7911 75.8169 77.5914 72.1244L45.9854 77.1303C44.938 73.9067 44.8658 69.8504 47.0787 66.2392C49.2916 62.6281 52.9386 60.8508 56.2864 60.3206L66.1749 90.7544ZM57.2462 92.1685L66.1749 90.7544L56.2864 60.3206L47.3576 61.7347L57.2462 92.1685ZM85.6279 128.379L68.1049 74.4487L36.4989 79.4546L54.0219 133.385L85.6279 128.379ZM111.985 108.204L64.8806 115.665L74.7691 146.099L121.873 138.638L111.985 108.204ZM72.4288 37.6038L101.126 125.924L132.732 120.918L104.035 32.5979L72.4288 37.6038ZM83.4357 51.8605L93.1761 50.3178L83.2876 19.884L73.5472 21.4267L83.4357 51.8605ZM110.205 83.1091L94.2945 34.1407L62.6884 39.1466L78.5992 88.1151L110.205 83.1091ZM94.5715 118.266L109.073 94.6022L79.7317 76.622L65.2304 100.286L94.5715 118.266ZM35.7432 24.5124L64.0979 111.779L95.7039 106.773L67.3493 19.5065L35.7432 24.5124ZM47.1597 5.88243C43.3251 6.48978 39.323 8.48761 36.9148 12.4173C34.5067 16.347 34.5435 20.82 35.7432 24.5124L67.3493 19.5065C68.3966 22.7301 68.4688 26.7865 66.2559 30.3976C64.0429 34.0088 60.3959 35.786 57.0483 36.3162L47.1597 5.88243ZM82.0628 0.354322L47.1597 5.88243L57.0483 36.3162L91.9514 30.7881L82.0628 0.354322ZM127.171 35.5081C124.544 27.4242 120.719 17.884 113.659 10.6738C109.771 6.70329 104.83 3.35175 98.832 1.46253C92.9732 -0.382766 87.2642 -0.469486 82.0628 0.354322L91.9514 30.7881C93.2437 30.5835 93.1916 30.8335 92.3244 30.5603C91.9057 30.4285 91.4879 30.2315 91.1293 30.0037C90.7856 29.7854 90.6295 29.6238 90.6471 29.6418C90.7541 29.751 91.4152 30.4954 92.4124 32.4784C93.3912 34.4246 94.4374 37.0445 95.5647 40.514L127.171 35.5081ZM151.55 110.541L127.171 35.5081L95.5647 40.514L119.944 115.547L151.55 110.541ZM132.584 155.843C137.786 155.02 142.882 153.221 147.027 149.792C151.271 146.28 153.656 141.769 154.71 137.015C156.623 128.384 154.177 118.625 151.55 110.541L119.944 115.547C121.072 119.017 121.747 121.695 122.067 123.746C122.393 125.835 122.257 126.706 122.228 126.837C122.223 126.858 122.264 126.665 122.439 126.365C122.622 126.051 122.877 125.748 123.173 125.503C123.787 124.995 123.988 125.205 122.696 125.41L132.584 155.843ZM71.3567 165.541L132.584 155.843L122.696 125.41L61.4682 135.107L71.3567 165.541ZM36.1165 143.946C40.7264 158.134 56.6224 167.875 71.3567 165.541L61.4682 135.107C62.9507 134.872 64.3254 135.284 65.2966 135.879C66.2677 136.474 67.2587 137.512 67.7226 138.94L36.1165 143.946ZM16.2064 82.6686L36.1165 143.946L67.7226 138.94L47.8124 77.6627L16.2064 82.6686ZM28.025 96.7967L36.9537 95.3826L27.0651 64.9488L18.1364 66.3629L28.025 96.7967ZM6.21203 83.4297C7.41178 87.1222 10.143 91.1683 14.744 93.9879C19.3451 96.8074 24.1902 97.4041 28.025 96.7967L18.1364 66.3629C21.4842 65.8327 25.8727 66.3373 30.1008 68.9283C34.3288 71.5193 36.7707 75.2003 37.8181 78.4238L6.21203 83.4297ZM0.878952 67.0162L6.21203 83.4297L37.8181 78.4238L32.485 62.0103L0.878952 67.0162ZM12.2954 48.3862C8.46067 48.9936 4.45861 50.9915 2.05051 54.9211C-0.357576 58.8508 -0.320825 63.3237 0.878952 67.0162L32.485 62.0103C33.5324 65.2339 33.6045 69.2903 31.3916 72.9014C29.1787 76.5125 25.5317 78.2898 22.184 78.82L12.2954 48.3862ZM21.2241 46.972L12.2954 48.3862L22.184 78.82L31.1127 77.4059L21.2241 46.972Z" fill="black" mask="url(#path-1-outside-1_8_1058)"/>
</svg>
