<svg width="87" height="336" viewBox="0 0 87 336" fill="none" xmlns="http://www.w3.org/2000/svg">
<path d="M87 0.622263L87 35.469C87 35.8424 86.7825 36.0913 86.4562 36.0913L74.4938 36.0913C74.1675 36.0913 73.95 35.8424 73.95 35.469L73.95 26.135L0.543761 26.135C0.217513 26.135 1.41273e-05 25.8861 1.41436e-05 25.5128L1.47964e-05 10.5785C1.48127e-05 10.2051 0.217514 9.9562 0.543762 9.9562L73.95 9.95621L73.95 0.622262C73.95 0.248905 74.1675 -5.60926e-07 74.4938 -5.46665e-07L86.4563 -2.3768e-08C86.7825 -9.5071e-09 87 0.248905 87 0.622263Z" fill="#E0E0E0"/>
<path d="M36.975 69.0809L36.975 57.2579L13.05 57.2579L13.05 72.8145C13.05 73.1879 12.8325 73.4368 12.5063 73.4368L0.543759 73.4368C0.217511 73.4368 1.20596e-05 73.1879 1.2076e-05 72.8145L1.3436e-05 41.7013C1.34523e-05 41.328 0.217512 41.0791 0.54376 41.0791L86.4562 41.0791C86.7825 41.0791 87 41.328 87 41.7013L87 71.57C87 71.9433 86.7825 72.1922 86.4562 72.1922L74.4938 72.1922C74.1675 72.1922 73.95 71.9433 73.95 71.57L73.95 57.2579L50.025 57.2579L50.025 69.0809C50.025 69.4543 49.8075 69.7032 49.4813 69.7032L37.5188 69.7032C37.1925 69.7032 36.975 69.4543 36.975 69.0809Z" fill="#E0E0E0"/>
<path d="M49.6988 100.821L73.95 100.821L73.95 93.354L13.05 93.354L13.05 100.821L42.0863 100.821C42.4125 100.821 42.63 101.07 42.63 101.443L42.63 116.378C42.63 116.751 42.4125 117 42.0863 117L17.4 117C6.52501 117 1.02534e-05 114.511 1.06886e-05 104.555L1.13414e-05 89.6205C1.17766e-05 79.6643 6.52501 77.1752 17.4 77.1752L69.6 77.1752C80.475 77.1752 87 79.6643 87 89.6205L87 104.555C87 114.511 80.475 117 69.6 117L49.6988 117C49.3725 117 49.155 116.751 49.155 116.378L49.155 101.443C49.155 101.07 49.3725 100.821 49.6988 100.821Z" fill="#E0E0E0"/>
<path d="M87 146.29L87 161.224C87 161.598 86.7825 161.847 86.4562 161.847L0.543755 161.847C0.217507 161.847 8.19512e-06 161.598 8.21144e-06 161.224L8.86424e-06 146.29C8.88056e-06 145.917 0.217508 145.668 0.543756 145.668L36.975 145.668L36.975 138.201L0.543756 138.201C0.217508 138.201 9.22872e-06 137.952 9.24504e-06 137.578L9.89784e-06 122.644C9.91416e-06 122.271 0.217509 122.022 0.543757 122.022L86.4562 122.022C86.7825 122.022 87 122.271 87 122.644L87 137.578C87 137.952 86.7825 138.201 86.4562 138.201L50.025 138.201L50.025 145.668L86.4562 145.668C86.7825 145.668 87 145.917 87 146.29Z" fill="#E0E0E0"/>
<path d="M87 194.248C87 204.204 80.475 206.693 69.6 206.693L17.4 206.693C6.52501 206.693 6.33273e-06 204.204 6.76793e-06 194.248L7.93753e-06 167.491C7.95385e-06 167.117 0.217507 166.869 0.543755 166.869L86.4562 166.869C86.7825 166.869 87 167.117 87 167.491L87 194.248ZM13.05 190.515L73.95 190.515L73.95 183.047L13.05 183.047L13.05 190.515Z" fill="#E0E0E0"/>
<path d="M36.975 239.717L36.975 227.894L13.05 227.894L13.05 243.451C13.05 243.824 12.8325 244.073 12.5063 244.073L0.543752 244.073C0.217503 244.073 4.6009e-06 243.824 4.61722e-06 243.451L5.97722e-06 212.338C5.99354e-06 211.964 0.217505 211.715 0.543753 211.715L86.4562 211.715C86.7825 211.715 87 211.964 87 212.338L87 242.206C87 242.58 86.7825 242.828 86.4562 242.828L74.4937 242.828C74.1675 242.828 73.95 242.58 73.95 242.206L73.95 227.894L50.025 227.894L50.025 239.717C50.025 240.09 49.8075 240.339 49.4812 240.339L37.5188 240.339C37.1925 240.339 36.975 240.09 36.975 239.717Z" fill="#E0E0E0"/>
<path d="M56.4412 271.457L73.95 271.457L73.95 263.99L58.1812 263.99C56.985 263.99 54.9187 263.866 53.8312 266.479L49.4812 276.436C46.2187 284.027 42.3037 287.636 33.495 287.636L17.4 287.636C6.525 287.636 2.79461e-06 285.147 3.22981e-06 275.191L3.88261e-06 260.257C4.31781e-06 250.3 6.52501 247.811 17.4 247.811L34.9087 247.811C35.235 247.811 35.4525 248.06 35.4525 248.434L35.4525 263.368C35.4525 263.741 35.235 263.99 34.9087 263.99L13.05 263.99L13.05 271.457L33.1687 271.457C34.365 271.457 36.4312 271.582 37.5187 268.968L41.8687 259.012C45.1312 251.421 49.0462 247.811 57.855 247.811L69.6 247.811C80.475 247.811 87 250.3 87 260.257L87 275.191C87 285.147 80.475 287.636 69.6 287.636L56.4412 287.636C56.115 287.636 55.8975 287.387 55.8975 287.014L55.8975 272.08C55.8975 271.706 56.115 271.457 56.4412 271.457Z" fill="#E0E0E0"/>
<path d="M1.7863e-06 308.215L2.4391e-06 293.28C2.45542e-06 292.907 0.217501 292.658 0.543749 292.658L86.4562 292.658C86.7825 292.658 87 292.907 87 293.28L87 308.215C87 308.588 86.7825 308.837 86.4562 308.837L50.5687 308.837L50.5687 311.326L86.4562 319.291C86.7825 319.415 87 319.664 87 320.038L87 335.47C87 335.843 86.7825 336.092 86.4562 335.968L43.5 325.762L0.543748 335.968C0.10875 336.092 5.78618e-07 335.843 5.94938e-07 335.47L1.2695e-06 320.038C1.28582e-06 319.664 0.2175 319.415 0.543748 319.291L36.4312 311.326L36.4312 308.837L0.543749 308.837C0.217501 308.837 1.76998e-06 308.588 1.7863e-06 308.215Z" fill="#E0E0E0"/>
</svg>
