<svg width="99" height="94" viewBox="0 0 99 94" fill="none" xmlns="http://www.w3.org/2000/svg">
<path fill-rule="evenodd" clip-rule="evenodd" d="M66.5538 62.4744L69.059 59.984C72.5218 56.5405 77.9195 55.8332 82.3503 58.2416L92.8581 63.9539C99.606 67.6219 101.093 76.6122 95.8192 81.8564L88.006 89.6246C86.0194 91.6002 83.5543 93.0439 80.7196 93.3079C74.1625 93.9195 60.6721 93.5895 44.7556 84.2725L66.5538 62.4744ZM34.0488 30.1541L35.6262 28.5855C39.5125 24.7216 39.8788 18.518 36.4881 13.9891L29.5529 4.72492C25.3565 -0.880458 17.2478 -1.62092 12.438 3.16154L3.80516 11.7453C1.42025 14.1167 -0.177935 17.1907 0.0158851 20.6008C0.371845 26.8645 2.507 38.3069 11.8347 52.3682L34.0488 30.1541Z" fill="black"/>
<path d="M44.3447 52.2343C28.1431 36.1245 34.0096 30.1905 34.0465 30.1536L11.8324 52.368C15.4964 57.8911 20.2703 63.819 26.4822 69.9954C32.7506 76.228 38.9151 80.8546 44.7533 84.2723L66.5515 62.4742C66.5515 62.4742 60.5972 68.3944 44.3447 52.2343Z" fill="#222122"/>
</svg>
